<?xml version="1.0" standalone="no"?><!DOCTYPE svg PUBLIC "-//W3C//DTD SVG 1.1//EN" "http://www.w3.org/Graphics/SVG/1.1/DTD/svg11.dtd"><svg t="1536472456846" class="icon" style="" viewBox="0 0 1024 1024" version="1.1" xmlns="http://www.w3.org/2000/svg" p-id="6893" xmlns:xlink="http://www.w3.org/1999/xlink" width="200" height="200"><defs><style type="text/css"></style></defs><path d="M255.488 387.072l-3.584 2.048 5.12-3.072z" fill="#ffffff" p-id="6894"></path><path d="M512 0C229.376 0 0 229.376 0 512s229.376 512 512 512 512-229.376 512-512S794.624 0 512 0z m0 987.136c-262.656 0-475.136-212.992-475.136-475.136C36.864 249.344 249.344 36.864 512 36.864s475.136 212.992 475.136 475.648c0.512 262.144-212.48 475.136-475.136 474.624z" fill="#ffffff" p-id="6895"></path><path d="M838.656 697.344c-6.144-5.12-64.512-33.792-109.056-55.296-12.8-6.144-35.328-18.432-37.376-20.48-23.552-26.112-47.104-51.712-71.68-76.8C604.16 527.872 522.24 445.44 502.784 424.96c-36.352-38.4-56.832-62.976-63.488-76.8-34.304-59.904-65.024-81.92-124.928-83.456-28.16-1.536-55.296 9.728-74.24 30.72-6.656 7.168-12.8 14.848-17.408 23.552l-17.408 9.728-2.56 1.536c-6.144 3.584-11.776 6.656-15.872 9.216l-6.144 4.096c-4.096 1.024-4.096 1.024-8.192 24.576l4.608 7.68c4.096 4.096 7.68 5.632 19.456 10.752l2.56 1.024 15.36 6.144c7.168 3.072 10.752 5.12 10.24 2.56 1.536 15.36 2.56 31.232 3.584 47.104l0.512 5.12c5.12 66.56 9.216 92.672 28.16 137.216 23.552 56.832 68.096 101.888 123.904 126.464 87.04 38.4 176.128 36.864 258.56 11.776 12.8-4.096 25.088-8.704 37.376-13.824l2.56 1.536c9.216 6.656 18.944 13.312 28.672 18.944 16.896 10.24 34.816 18.944 53.76 24.576 9.728 3.072 19.968 4.608 29.696 4.608 29.184 0.512 48.128-6.144 55.808-22.528 7.168-14.336 3.072-30.72-8.704-39.936z m-65.024 17.408c-13.312-3.584-27.648-10.752-43.52-20.48 0.512 0.512-44.032-30.72-54.272-29.184-1.024 0-30.208 12.288-48.128 17.408-73.728 22.528-152.576 24.064-229.376-9.728-49.664-22.528-82.432-58.368-102.912-104.96-16.896-38.912-20.48-61.952-25.088-123.904-1.024-16.384-2.048-32.768-3.584-49.152-0.512-4.608-1.024-6.656-1.536-9.216-3.072-14.336-11.264-20.992-27.648-28.16 3.584-2.048 7.168-4.096 10.752-5.632l9.216-9.728c3.072-6.656 7.68-12.8 12.8-18.432 10.752-12.288 26.624-18.432 42.496-17.92 44.544 1.536 62.976 14.336 90.112 61.44 8.192 17.92 30.208 44.544 70.144 86.528 19.456 20.48 101.376 103.424 117.76 119.808 19.968 20.992 37.888 39.424 53.76 56.832l18.432 20.48c15.36 10.752 31.232 19.968 48.128 28.16 26.624 12.8 52.736 25.6 78.848 38.912-4.608 0-10.24-1.536-16.384-3.072z" fill="#ffffff" p-id="6896"></path><path d="M473.6 576c-55.296 1.024-80.896-15.36-89.088-43.008-4.096-14.848-4.096-30.72 0-45.568 2.56-10.24-3.072-20.48-12.8-24.064-10.752-4.096-22.528 1.536-26.624 11.776a123.904 123.904 0 0 0 0 69.632c13.824 46.08 56.32 73.216 129.536 72.192 11.264 0 20.48-9.728 20.48-20.992-0.512-10.752-9.728-19.968-21.504-19.968z" fill="#ffffff" p-id="6897"></path></svg>