<?xml version="1.0" standalone="no"?><!DOCTYPE svg PUBLIC "-//W3C//DTD SVG 1.1//EN" "http://www.w3.org/Graphics/SVG/1.1/DTD/svg11.dtd"><svg t="1536472798638" class="icon" style="" viewBox="0 0 1024 1024" version="1.1" xmlns="http://www.w3.org/2000/svg" p-id="28418" xmlns:xlink="http://www.w3.org/1999/xlink" width="200" height="200"><defs><style type="text/css"></style></defs><path d="M 512.119 776.4 c -2.67307 0 -6.57138 -1.24871 -16.9081 -10.3061 c -6.91413 -6.05796 -15.7113 -14.7748 -25.4407 -25.2096 c -22.1404 -23.7476 -46.4775 -53.3703 -68.5291 -83.4126 C 365.855 609.259 306.489 518.783 306.489 454.519 c 0 -54.9248 21.3881 -106.562 60.2247 -145.4 C 405.552 270.279 457.191 248.889 512.119 248.889 c 54.9291 0 106.569 21.3888 145.406 60.2254 c 38.8366 38.8366 60.2247 90.4754 60.2247 145.405 c 0 64.1337 -59.5769 154.689 -95.0905 202.961 c -22.016 29.9243 -46.3659 59.5435 -68.5646 83.4012 c -9.68391 10.4092 -18.4356 19.1232 -25.3063 25.1989 C 518.531 775.151 514.715 776.4 512.119 776.4 Z M 512.119 284.736 c -45.3497 0 -87.9865 17.6619 -120.055 49.7323 c -32.0676 32.069 -49.728 74.7044 -49.728 120.051 c 0 26.762 14.2677 78.9241 82.2407 175.451 c 38.0956 54.0978 76.074 97.7636 87.2853 108.885 c 11.0585 -11.7774 49.8084 -56.7701 86.5856 -108.542 c 38.0729 -53.5943 83.4574 -127.599 83.4574 -175.794 c 0 -45.3476 -17.6604 -87.9829 -49.728 -120.051 C 600.108 302.398 557.471 284.736 512.119 284.736 Z M 512.119 530.697 c -42.0046 0 -76.1778 -34.1732 -76.1778 -76.1778 s 34.1732 -76.1778 76.1778 -76.1778 c 42.0046 0 76.1778 34.1732 76.1778 76.1778 S 554.124 530.697 512.119 530.697 Z M 512.119 414.189 c -22.2379 0 -40.3307 18.0921 -40.3307 40.3307 s 18.0921 40.3307 40.3307 40.3307 s 40.3307 -18.0921 40.3307 -40.3307 S 534.357 414.189 512.119 414.189 Z" fill="#d81e06" p-id="28419"></path></svg>