<?xml version="1.0" standalone="no"?><!DOCTYPE svg PUBLIC "-//W3C//DTD SVG 1.1//EN" "http://www.w3.org/Graphics/SVG/1.1/DTD/svg11.dtd"><svg t="1536477969710" class="icon" style="" viewBox="0 0 1024 1024" version="1.1" xmlns="http://www.w3.org/2000/svg" p-id="6196" xmlns:xlink="http://www.w3.org/1999/xlink" width="200" height="200"><defs><style type="text/css"></style></defs><path d="M712.704 564.736c-7.68-5.12-14.848-10.24-19.968-12.8-52.736 38.4-115.2 66.56-183.296 66.56-67.584 0-130.56-28.16-183.296-66.56-2.56 2.56-5.12 2.56-7.68 5.12-128 71.68-213.504 218.112-213.504 374.784 0 20.48 122.88 81.92 401.408 81.92 278.528 0 401.408-61.44 401.408-81.92 0.512-151.552-77.312-290.304-195.072-367.104z m-198.144 0c145.408 0 265.728-123.392 265.728-276.992C777.728 133.632 659.968 10.24 514.56 10.24c-145.92 0-266.24 123.392-266.24 276.992 0 151.552 118.272 277.504 266.24 277.504z" p-id="6197" fill="#ffffff"></path></svg>