<?xml version="1.0" standalone="no"?><!DOCTYPE svg PUBLIC "-//W3C//DTD SVG 1.1//EN" "http://www.w3.org/Graphics/SVG/1.1/DTD/svg11.dtd"><svg t="1536494177977" class="icon" style="" viewBox="0 0 1024 1024" version="1.1" xmlns="http://www.w3.org/2000/svg" p-id="2993" xmlns:xlink="http://www.w3.org/1999/xlink" width="200" height="200"><defs><style type="text/css"></style></defs><path d="M512.255362 52.093766c61.797506 0 121.55212 12.257357 177.73167 35.750623 54.647382 22.982544 103.166085 56.179551 145.55611 98.058853s75.076309 90.908728 98.058853 145.55611c24.00399 56.179551 35.750623 116.444888 35.750623 177.73167s-12.257357 121.55212-35.750623 177.731671c-22.982544 54.647382-56.179551 103.166085-98.058853 145.55611-41.879302 41.879302-90.908728 75.076309-145.55611 98.058853-56.179551 24.00399-116.444888 35.750623-177.73167 35.750623s-121.55212-12.257357-177.731671-35.750623c-54.647382-22.982544-103.166085-56.179551-145.55611-98.058853-41.879302-41.879302-75.076309-90.908728-98.058853-145.55611-24.00399-56.179551-35.750623-116.444888-35.750623-177.731671 0-61.797506 12.257357-121.55212 35.750623-177.73167C113.891272 277.322693 146.577556 228.293267 188.967581 186.413965s90.908728-75.076309 145.55611-98.058853c55.668828-24.00399 115.934165-36.261347 177.731671-36.261346m0-52.093766C230.846883 0 2.553616 228.293267 2.553616 509.701746S230.846883 1018.892768 512.255362 1018.892768 1021.446384 790.599501 1021.446384 509.701746 793.153117 0 512.255362 0z" p-id="2994" fill="#ffffff"></path><path d="M379.467332 430.028928v311.541147H275.790524v-311.541147h103.676808z m6.639401-96.526684c0 15.321696-5.107232 28.089776-15.832419 38.30424s-25.025436 15.321696-42.390025 15.321696H326.862843c-17.364589 0-31.154115-5.107232-41.368579-15.321696-10.725187-10.214464-15.832419-22.982544-15.832419-38.30424s5.617955-28.089776 16.343143-38.304239 25.025436-15.321696 42.390024-15.321696c17.364589 0 31.154115 5.107232 41.879302 15.321696 10.214464 10.214464 15.321696 22.982544 15.832419 38.304239z m366.188529 229.314714v178.242394h-103.166085V574.563591c0-21.961097-4.085786-39.325686-12.76808-51.583042-8.682294-12.257357-21.961097-18.896758-39.836409-18.896758-13.278803 0-24.00399 3.575062-33.197007 10.725187s-15.321696 16.343142-19.918205 27.068329c-2.553616 6.128678-3.575062 14.810973-3.575062 25.536159v173.645886H436.668329c0.510723-83.758603 0.510723-151.174065 0.510723-203.267831s0-82.737157-0.510723-92.951621l-0.510723-15.321696h103.166085v45.454365h-0.510723c4.085786-6.639401 8.682294-12.76808 12.768079-17.364589 4.596509-5.107232 10.214464-10.214464 17.875312-16.343142 7.660848-5.617955 16.343142-10.214464 27.068329-13.789526 10.725187-3.064339 22.982544-5.107232 35.750624-5.107232 35.750623 0 64.861845 11.746633 86.312219 35.750623 22.982544 24.00399 33.707731 58.733167 33.707731 104.698255z" p-id="2995" fill="#ffffff"></path></svg>