<?xml version="1.0" standalone="no"?><!DOCTYPE svg PUBLIC "-//W3C//DTD SVG 1.1//EN" "http://www.w3.org/Graphics/SVG/1.1/DTD/svg11.dtd"><svg t="1536473851323" class="icon" style="" viewBox="0 0 1053 1024" version="1.1" xmlns="http://www.w3.org/2000/svg" p-id="43677" xmlns:xlink="http://www.w3.org/1999/xlink" width="205.6640625" height="200"><defs><style type="text/css"></style></defs><path d="M2.783502 0zM188.966206 62.531527c-20.486816 0-37.71171 6.991223-51.699025 20.97367-13.987315 13.987315-20.97367 31.217078-20.97367 51.703893 0 20.481947 6.893853 37.521837 20.681557 51.114801 13.782836 13.583226 31.119707 20.379708 51.991138 20.379708 20.881168 0 38.510151-6.796482 52.88208-20.379708 14.376798-13.592963 21.5725-30.632853 21.572501-51.114801 0-20.876299-7.195702-38.21317-21.572501-51.996006-14.37193-13.792574-32.000913-20.681558-52.88208-20.681557zM129.886474 365.637085h115.812827V1019.13146H129.886474zM948.818704 419.108258c-37.419598-45.890857-91.981325-68.826549-163.670574-68.826548-93.733999 0-165.238245 41.153768-214.478658 123.485646h-2.361242v-108.130271H452.490534V1019.13146h115.817696v-372.827918c0-57.906414 16.33882-105.773898 49.035934-143.582979 32.701983-37.818818 74.439975-56.723359 125.272401-56.723359 98.071868 0 147.117539 67.161508 147.117539 201.479656V1019.13146h115.218866v-399.424751c0-87.833329-18.714667-154.702724-56.134266-200.598451z" p-id="43678"></path></svg>