<?xml version="1.0" standalone="no"?><!DOCTYPE svg PUBLIC "-//W3C//DTD SVG 1.1//EN" "http://www.w3.org/Graphics/SVG/1.1/DTD/svg11.dtd"><svg t="1536473974091" class="icon" style="" viewBox="0 0 1024 1024" version="1.1" xmlns="http://www.w3.org/2000/svg" p-id="51089" xmlns:xlink="http://www.w3.org/1999/xlink" width="200" height="200"><defs><style type="text/css"></style></defs><path d="M907.548 192.853c1.764 7.51 2.674 15.303 2.674 23.325v591.644c0 8.022-0.91 15.815-2.674 23.325a68.267 68.267 0 1 1-76.43 76.401 102.684 102.684 0 0 1-23.296 2.674H216.178a102.684 102.684 0 0 1-23.325-2.674 68.267 68.267 0 1 1-76.401-76.43 102.684 102.684 0 0 1-2.674-23.296V216.178c0-8.022 0.91-15.815 2.674-23.325a68.267 68.267 0 1 1 76.401-76.373 102.684 102.684 0 0 1 23.325-2.702h591.644c8.022 0 15.815 0.91 23.325 2.674a68.267 68.267 0 1 1 76.401 76.43z m-673.45-33.564a74.809 74.809 0 0 0-74.81 74.809v555.804a74.809 74.809 0 0 0 74.81 74.81h555.804a74.809 74.809 0 0 0 74.81-74.81V234.098a74.809 74.809 0 0 0-74.81-74.81H234.098z" p-id="51090"></path></svg>