<?xml version="1.0" standalone="no"?><!DOCTYPE svg PUBLIC "-//W3C//DTD SVG 1.1//EN" "http://www.w3.org/Graphics/SVG/1.1/DTD/svg11.dtd"><svg t="1536473622035" class="icon" style="" viewBox="0 0 1024 1024" version="1.1" xmlns="http://www.w3.org/2000/svg" p-id="37206" xmlns:xlink="http://www.w3.org/1999/xlink" width="200" height="200"><defs><style type="text/css"></style></defs><path d="M704.912696 0H319.087304C265.794783 0 222.608696 41.672348 222.608696 93.050435v837.89913C222.608696 982.28313 265.794783 1024 319.087304 1024h385.825392C758.205217 1024 801.391304 982.327652 801.391304 930.949565V93.050435C801.391304 41.71687 758.205217 0 704.912696 0z m48.261565 930.949565c0 25.644522-21.593043 46.480696-48.261565 46.480696H319.087304c-26.668522 0-48.261565-20.836174-48.261565-46.525218v-93.050434h482.348522v93.050434zM270.825739 791.240348h482.348522V209.474783H270.825739v581.810087zM753.174261 162.905043H270.825739V93.094957c0-25.689043 21.593043-46.569739 48.261565-46.56974h385.825392c26.668522 0 48.261565 20.880696 48.261565 46.56974v69.810086zM512 930.949565c13.356522 0 24.130783-10.418087 24.130783-23.284869a23.685565 23.685565 0 0 0-24.130783-23.240348c-13.356522 0-24.130783 10.418087-24.130783 23.240348 0 12.866783 10.818783 23.28487 24.130783 23.284869z" p-id="37207" fill="#ffffff"></path></svg>