<?xml version="1.0" standalone="no"?><!DOCTYPE svg PUBLIC "-//W3C//DTD SVG 1.1//EN" "http://www.w3.org/Graphics/SVG/1.1/DTD/svg11.dtd"><svg t="1536472741499" class="icon" style="" viewBox="0 0 1024 1024" version="1.1" xmlns="http://www.w3.org/2000/svg" p-id="27933" xmlns:xlink="http://www.w3.org/1999/xlink" width="200" height="200"><defs><style type="text/css"></style></defs><path d="M512.768 982.656c-63.488 0-125.056-12.416-183.168-36.992-56.064-23.68-106.368-57.6-149.504-100.864C136.96 801.664 103.04 751.36 79.36 695.296c-24.576-57.984-36.992-119.552-36.992-183.168S54.784 387.072 79.36 328.96c23.68-56.064 57.6-106.368 100.864-149.504 43.136-43.136 93.44-77.056 149.504-100.864 57.984-24.576 119.552-36.992 183.168-36.992s125.056 12.416 183.168 36.992c56.064 23.68 106.368 57.6 149.504 100.864 43.136 43.136 77.056 93.44 100.864 149.504 24.576 57.984 36.992 119.552 36.992 183.168 0 63.488-12.416 125.056-36.992 183.168-23.68 56.064-57.6 106.368-100.864 149.504-43.136 43.136-93.44 77.056-149.504 100.864-58.112 24.576-119.808 36.992-183.296 36.992z m0-896c-113.664 0-220.544 44.288-300.928 124.672-80.384 80.384-124.672 187.264-124.672 300.928s44.288 220.544 124.672 300.928c80.384 80.384 187.264 124.672 300.928 124.672 113.664 0 220.544-44.288 300.928-124.672s124.672-187.264 124.672-300.928c0-113.664-44.288-220.544-124.672-300.928-80.256-80.384-187.136-124.672-300.928-124.672z" fill="#ffffff" p-id="27934"></path><path d="M512.768 618.496c-48.384 0-87.68-38.912-87.68-86.912 0-48 39.296-86.912 87.68-86.912s87.68 38.912 87.68 86.912c0 48-39.168 86.912-87.68 86.912z m0-212.48c-69.888 0-126.592 56.192-126.592 125.568 0 69.376 56.704 125.568 126.592 125.568 69.888 0 126.592-56.192 126.592-125.568 0-69.376-56.576-125.568-126.592-125.568z m185.088 299.392H327.808c-21.504 0-38.912-17.28-38.912-38.656V405.888c0-21.376 17.408-38.656 38.912-38.656h82.816l24.32-38.656c0-5.376 14.08-9.6 19.456-9.6h116.864c5.376 0 19.456 4.352 19.456 9.6l24.32 38.656h82.816c21.504 0 38.912 17.28 38.912 38.656v260.864c0 21.376-17.408 38.656-38.912 38.656z" fill="#ffffff" p-id="27935"></path></svg>