<?xml version="1.0" standalone="no"?><!DOCTYPE svg PUBLIC "-//W3C//DTD SVG 1.1//EN" "http://www.w3.org/Graphics/SVG/1.1/DTD/svg11.dtd"><svg t="1536574193712" class="icon" style="" viewBox="0 0 1024 1024" version="1.1" xmlns="http://www.w3.org/2000/svg" p-id="2107" xmlns:xlink="http://www.w3.org/1999/xlink" width="200" height="200"><defs><style type="text/css"></style></defs><path d="M512 399.847619c-107.27619 0-195.047619 87.771429-195.047619 195.047619s87.771429 195.047619 195.047619 195.047619 195.047619-87.771429 195.047619-195.047619S619.27619 399.847619 512 399.847619zM512 741.180952c-80.457143 0-146.285714-65.828571-146.285714-146.285714s65.828571-146.285714 146.285714-146.285714 146.285714 65.828571 146.285714 146.285714S592.457143 741.180952 512 741.180952z" p-id="2108" fill="#ffffff"></path><path d="M877.714286 243.809524l-165.790476 0L707.047619 214.552381C699.733333 173.104762 670.47619 146.285714 629.028571 146.285714l-236.495238 0c-39.009524 0-70.704762 26.819048-75.580952 68.266667L312.07619 243.809524 146.285714 243.809524c-68.266667 0-121.904762 53.638095-121.904762 121.904762l0 438.857143c0 68.266667 53.638095 121.904762 121.904762 121.904762l731.428571 0c68.266667 0 121.904762-53.638095 121.904762-121.904762L999.619048 365.714286C999.619048 297.447619 945.980952 243.809524 877.714286 243.809524zM950.857143 804.571429c0 41.447619-31.695238 73.142857-73.142857 73.142857L146.285714 877.714286c-41.447619 0-73.142857-31.695238-73.142857-73.142857L73.142857 365.714286c0-41.447619 31.695238-73.142857 73.142857-73.142857l185.295238 0c12.190476 0 21.942857-7.314286 24.380952-19.504762l9.752381-48.761905C368.152381 204.8 377.904762 195.047619 394.971429 195.047619l236.495238 0c17.066667 0 26.819048 9.752381 29.257143 29.257143l9.752381 48.761905c2.438095 12.190476 12.190476 19.504762 24.380952 19.504762L877.714286 292.571429c41.447619 0 73.142857 31.695238 73.142857 73.142857L950.857143 804.571429z" p-id="2109" fill="#ffffff"></path></svg>