<?xml version="1.0" standalone="no"?><!DOCTYPE svg PUBLIC "-//W3C//DTD SVG 1.1//EN" "http://www.w3.org/Graphics/SVG/1.1/DTD/svg11.dtd"><svg t="1536473431402" class="icon" style="" viewBox="0 0 1024 1024" version="1.1" xmlns="http://www.w3.org/2000/svg" p-id="32683" xmlns:xlink="http://www.w3.org/1999/xlink" width="200" height="200"><defs><style type="text/css"></style></defs><path d="M443.6 262.3s3.4 73.4 2.8 97.9c-1.1 47-8.6 161-8.6 161S307.3 677.8 271.3 729.4c-16.3 23.4-11.7 57.8 18.6 64.5 30.3 6.7 435.8 0 435.8 0s43.1-2.2 32.6-44.5c-11.8-47.5-194.4-232.6-194.4-232.6s-4.9-61.2-5.7-81.6c-1.6-44.3-0.2-177.3-0.2-177.3l-114.4 4.4z" fill="#ffffff" p-id="32684"></path><path d="M418.2 801.8c-65.8 0-118.8-0.8-129.3-3.1-13.7-3-23.9-11.5-28.8-24-5.9-15.1-3.1-33.6 7.1-48.3 34-48.7 153.2-192.3 165.7-207.2 0.9-14.1 7.5-115.9 8.5-159.2 0.6-24-2.8-96.8-2.8-97.5l-0.2-5 124.8-4.8-0.1 5.3c0 1.3-1.4 133.4 0.2 177.1 0.6 18.1 4.7 69.3 5.5 79.6 17.7 18 182.8 186.9 194.4 233.6 3.5 14 1.9 25.7-4.7 34.6-11 14.8-31.6 16-32.5 16.1h-0.2c-10.9 0-182.3 2.8-307.6 2.8z m30.6-534.7c0.8 17.1 3.1 72.3 2.6 93.2-1.1 46.5-8.6 160.1-8.6 161.3l-0.1 1.6-1 1.2c-1.3 1.6-130.7 157-166.2 207.8-8.3 11.8-10.6 27.1-6 38.9 2.5 6.5 8.4 14.9 21.6 17.8 23.5 5.2 294.4 2.2 434.5-0.1 1.1-0.1 17.1-1.4 25-12.1 4.7-6.4 5.7-15.2 3-26.2-3.2-13-23.3-46.5-100.5-132-46.5-51.5-92.2-97.9-92.6-98.3l-1.3-1.3-0.1-1.8c-0.2-2.5-5-61.5-5.7-81.8-1.4-38.9-0.5-147.1-0.2-172.3l-104.4 4.1z" fill="#ffffff" p-id="32685"></path><path d="M569.6 271.2s-52.2-1.7-69.6-1.7c-16.7 0-66.8 1.7-66.8 1.7-9.9 0-18-8.1-18-18v-4c0-9.9 8.1-18 18-18 0 0 46.2-3.4 70.5-4.1 21.7-0.6 65.9 0.1 65.9 0.1 9.9 0 18 8.1 18 18v8c0 9.9-8.1 18-18 18z" fill="#ffffff" p-id="32686"></path><path d="M569.6 276.2h-0.2c-0.5 0-52.1-1.7-69.3-1.7h-0.1c-16.4 0-66.2 1.7-66.7 1.7h-0.2c-12.7 0-23-10.3-23-23v-4c0-12.6 10.2-22.9 22.8-23 3.1-0.2 47.1-3.4 70.6-4.1 21.5-0.6 65.7 0.1 66.2 0.1 12.6 0 22.9 10.3 22.9 23v8c0 12.7-10.4 23-23 23z m-69.5-11.7c17.1 0 67.1 1.6 69.6 1.7 7.1 0 12.9-5.9 12.9-13v-8c0-7.2-5.8-13-13-13-0.5 0-44.5-0.7-65.8-0.1-23.9 0.7-69.8 4-70.3 4.1h-0.4c-7.2 0-13 5.8-13 13v4c0 7.1 5.8 13 12.9 13 3.1-0.1 50.5-1.7 66.9-1.7h0.2z" fill="#ffffff" p-id="32687"></path><path d="M450.7 571.7S341.5 679.9 317 724.3c-4.9 8.8-9.4 31.5 14.2 37.8 23.6 6.3 283.5-2 352.4-3.1 9.7-0.2 26.3-14 17.3-34.6-15-34.2-136.7-152.4-136.7-152.4l-113.5-0.3z" fill="#ffffff" p-id="32688"></path><path d="M393.6 769.4c-33.8 0-57.1-0.7-63.8-2.5-12.1-3.2-17.3-10.3-19.6-15.6-4.8-11.2-0.8-23.8 2.4-29.4 24.6-44.5 130.1-149.3 134.6-153.7l1.5-1.5 117.6 0.3 1.5 1.4c5 4.9 122.6 119.3 137.7 153.9 4.5 10.2 3.9 20.5-1.5 28.9-4.7 7.4-13.1 12.6-20.3 12.7-15.2 0.3-40 0.9-68.7 1.6-83.5 2.1-166.3 3.9-221.4 3.9z m59.1-192.6c-13 13-109 109.5-131.4 150-2.4 4.4-4.9 13.5-1.9 20.7 2 4.8 6.4 8.1 13 9.8 17.7 4.7 183.3 0.7 282.3-1.8 28.8-0.7 53.6-1.3 68.8-1.6 3.4-0.1 8.9-3.1 12.1-8.1 2.5-3.9 4.7-10.4 0.7-19.5-13.6-30.9-120.4-135.9-134.1-149.3l-109.5-0.2z" fill="#ffffff" p-id="32689"></path><path d="M559.9 676.7m-28.5 0a28.5 28.5 0 1 0 57 0 28.5 28.5 0 1 0-57 0Z" fill="#ffffff" p-id="32690"></path><path d="M559.9 710.2c-18.5 0-33.5-15-33.5-33.5s15-33.5 33.5-33.5 33.5 15 33.5 33.5-15.1 33.5-33.5 33.5z m0-57c-13 0-23.5 10.5-23.5 23.5s10.5 23.5 23.5 23.5 23.5-10.5 23.5-23.5-10.6-23.5-23.5-23.5z" fill="#ffffff" p-id="32691"></path><path d="M504.4 652.7m-16.5 0a16.5 16.5 0 1 0 33 0 16.5 16.5 0 1 0-33 0Z" fill="#ffffff" p-id="32692"></path><path d="M504.4 674.2c-11.9 0-21.5-9.6-21.5-21.5s9.6-21.5 21.5-21.5 21.5 9.6 21.5 21.5-9.7 21.5-21.5 21.5z m0-33c-6.3 0-11.5 5.2-11.5 11.5s5.2 11.5 11.5 11.5 11.5-5.2 11.5-11.5-5.2-11.5-11.5-11.5z" fill="#ffffff" p-id="32693"></path><path d="M435.4 726.2m-16.5 0a16.5 16.5 0 1 0 33 0 16.5 16.5 0 1 0-33 0Z" fill="#ffffff" p-id="32694"></path><path d="M435.4 747.7c-11.9 0-21.5-9.6-21.5-21.5s9.6-21.5 21.5-21.5 21.5 9.6 21.5 21.5-9.7 21.5-21.5 21.5z m0-33c-6.3 0-11.5 5.2-11.5 11.5s5.2 11.5 11.5 11.5 11.5-5.2 11.5-11.5-5.2-11.5-11.5-11.5z" fill="#ffffff" p-id="32695"></path><path d="M521.5 273c-15.7 26.6-31.1 53.4-46.1 80.3-0.9 1.7 1.7 3.2 2.6 1.5 15-27 30.4-53.8 46.1-80.3 0.9-1.7-1.7-3.2-2.6-1.5zM549.9 272.6c-25.3 41.9-51 83.8-71.5 128.3-0.8 1.7 1.8 3.3 2.6 1.5 20.5-44.5 46.2-86.4 71.5-128.3 1-1.6-1.6-3.2-2.6-1.5zM554.5 303.9c-10.9 15.7-19.1 33-29.9 48.7-1.1 1.6 1.5 3.1 2.6 1.5 10.8-15.7 19-33 29.9-48.7 1.1-1.6-1.5-3.1-2.6-1.5zM552 341.3c-25.5 44.6-50.9 89.2-76.4 133.8-1 1.7 1.6 3.2 2.6 1.5 25.5-44.6 50.9-89.2 76.4-133.8 1-1.6-1.6-3.1-2.6-1.5zM558.5 426.2c-12.8 26.4-27.1 52.1-42.8 76.9-1 1.6 1.6 3.1 2.6 1.5 15.7-24.8 29.9-50.5 42.8-76.9 0.9-1.7-1.7-3.2-2.6-1.5zM557.9 464.6c-5.1 10.6-10.3 21.3-15.4 31.9-0.8 1.7 1.7 3.3 2.6 1.5 5.1-10.6 10.3-21.3 15.4-31.9 0.8-1.7-1.7-3.2-2.6-1.5zM559.4 489.3c-9.5 14.7-17.8 29.9-25.1 45.8-0.8 1.7 1.8 3.3 2.6 1.5 7.3-15.8 15.6-31.1 25.1-45.8 1-1.6-1.6-3.1-2.6-1.5zM333.7 705.4v54.7c0 1.9 3 1.9 3 0v-54.7c0-2-3-2-3 0zM347.7 686.7v72c0 1.9 3 1.9 3 0v-72c0-1.9-3-1.9-3 0zM363 670v96c0 1.9 3 1.9 3 0v-96c0-1.9-3-1.9-3 0zM379.7 648.7c0 37.3 0.5 74.6 0.5 111.8 0 1.9 3 1.9 3 0 0-37.3-0.5-74.6-0.5-111.8 0-1.9-3-1.9-3 0zM395 630v135.3c0 1.9 3 1.9 3 0V630c0-1.9-3-1.9-3 0zM412.4 616c0 48.6-0.5 97.1-0.5 145.7 0 1.9 3 1.9 3 0 0-48.6 0.5-97.1 0.5-145.7 0-1.9-3-1.9-3 0zM429 592.7V702c0 1.9 3 1.9 3 0V592.7c0-1.9-3-1.9-3 0zM429.7 745.4v16c0 1.9 3 1.9 3 0v-16c0-2-3-2-3 0zM447.8 571.4c-2 44.6-2.8 89.3-2.1 134 0 1.9 3 1.9 3 0-0.6-44.7 0.1-89.4 2.1-134 0-2-3-2-3 0zM445 744.7v14c0 1.9 3 1.9 3 0v-14c0-1.9-3-1.9-3 0zM463.2 574c-0.2 62.2-1.3 124.5-3.2 186.7-0.1 1.9 2.9 1.9 3 0 1.9-62.2 3-124.5 3.2-186.7 0-1.9-3-1.9-3 0zM479.7 572v190c0 1.9 3 1.9 3 0V572c0-1.9-3-1.9-3 0zM497.7 572.7c0.5 18.7 0.7 37.3 0.7 56 0 1.9 3 1.9 3 0 0-18.7-0.2-37.3-0.7-56 0-1.9-3-1.9-3 0zM495.9 679.3c-0.3 27.6-0.4 55.1-0.1 82.7 0 1.9 3 1.9 3 0-0.2-27.6-0.2-55.1 0.1-82.7 0-1.9-3-1.9-3 0zM516.2 572c0.2 15.9 0.5 31.8 0.2 47.7 0 1.9 3 1.9 3 0 0.3-15.9 0-31.8-0.2-47.7-0.1-1.9-3.1-1.9-3 0zM515.5 684l0.9 76.7c0 1.9 3 1.9 3 0l-0.9-76.7c0-1.9-3-1.9-3 0zM530.4 572.7v62c0 1.9 3 1.9 3 0v-62c0-1.9-3-1.9-3 0zM531 699.4v58c0 1.9 3 1.9 3 0v-58c0-2-3-2-3 0zM545.6 574c-0.2 20.8 0.3 41.6-0.3 62.3 0 1.9 3 1.9 3 0 0.5-20.8 0-41.6 0.3-62.3 0.1-1.9-2.9-1.9-3 0zM545.7 713.7c0.5 16.2-0.5 32.4 0 48.7 0.1 1.9 3.1 1.9 3 0-0.5-16.2 0.5-32.4 0-48.7-0.1-1.9-3.1-1.9-3 0zM560.4 574.7v54.7c0 1.9 3 1.9 3 0v-54.7c0-1.9-3-1.9-3 0zM562.4 714c0.6 15.8 0.7 31.6 0.7 47.3 0 1.9 3 1.9 3 0 0-15.8-0.1-31.6-0.7-47.3-0.1-1.9-3.1-1.9-3 0zM576.4 590.7v40.7c0 1.9 3 1.9 3 0v-40.7c0-1.9-3-1.9-3 0zM582.4 710v49.3c0 1.9 3 1.9 3 0V710c0-1.9-3-1.9-3 0zM597.5 615.3l-0.9 144c0 1.9 3 1.9 3 0l0.9-144c0-1.9-3-1.9-3 0zM610.2 624.7c-0.8 45.3-0.9 90.7-0.4 136 0 1.9 3 1.9 3 0-0.5-45.3-0.4-90.7 0.4-136 0.1-2-2.9-2-3 0zM624.5 642c-0.1 38.9-0.3 77.8-0.4 116.7 0 1.9 3 1.9 3 0 0.1-38.9 0.3-77.8 0.4-116.7 0-1.9-3-1.9-3 0zM639.4 656.7c-0.2 34.7-0.5 69.3-0.7 104 0 1.9 3 1.9 3 0 0.2-34.7 0.5-69.3 0.7-104 0-1.9-3-1.9-3 0zM652.4 672.7V760c0 1.9 3 1.9 3 0v-87.3c0-1.9-3-1.9-3 0zM668.6 685.3l-0.3 76c0 1.9 3 1.9 3 0l0.3-76c0-1.9-3-1.9-3 0zM681 704v52c0 1.9 3 1.9 3 0v-52c0-1.9-3-1.9-3 0zM318.4 724v32.7c0 1.9 3 1.9 3 0V724c0-1.9-3-1.9-3 0z" fill="#ffffff" p-id="32696"></path></svg>