<?xml version="1.0" standalone="no"?><!DOCTYPE svg PUBLIC "-//W3C//DTD SVG 1.1//EN" "http://www.w3.org/Graphics/SVG/1.1/DTD/svg11.dtd"><svg t="1536478064526" class="icon" style="" viewBox="0 0 1024 1024" version="1.1" xmlns="http://www.w3.org/2000/svg" p-id="7813" xmlns:xlink="http://www.w3.org/1999/xlink" width="200" height="200"><defs><style type="text/css"></style></defs><path d="M956.8 409.6h-83.2c-9.6-28.8-19.2-57.6-35.2-83.2l60.8-60.8c25.6-25.6 25.6-70.4 0-96l-48-48c-25.6-25.6-70.4-25.6-96 0l-60.8 60.8c-25.6-12.8-51.2-22.4-76.8-32V67.2c0-38.4-32-67.2-67.2-67.2h-67.2C444.8 0 416 32 416 67.2v83.2c-28.8 6.4-54.4 19.2-80 32l-67.2-60.8c-28.8-25.6-70.4-25.6-99.2 0l-48 48c-25.6 28.8-25.6 70.4 0 99.2l60.8 60.8c-12.8 25.6-25.6 51.2-32 80H67.2c-38.4 0-67.2 32-67.2 67.2V544c0 38.4 32 67.2 67.2 67.2h83.2c6.4 25.6 19.2 54.4 32 76.8l-60.8 60.8c-25.6 25.6-25.6 70.4 0 96l48 48c25.6 25.6 70.4 25.6 96 0l60.8-60.8c25.6 16 54.4 25.6 83.2 35.2v83.2c0 38.4 32 67.2 67.2 67.2H544c38.4 0 67.2-32 67.2-67.2v-83.2c28.8-6.4 54.4-19.2 80-32l57.6 57.6c25.6 25.6 70.4 25.6 96 0l48-48c25.6-25.6 25.6-70.4 0-96l-57.6-57.6c12.8-25.6 25.6-51.2 32-80h83.2c38.4 0 67.2-32 67.2-67.2v-67.2c6.4-35.2-25.6-67.2-60.8-67.2zM512 716.8c-112 0-204.8-92.8-204.8-204.8 0-112 92.8-204.8 204.8-204.8 112 0 204.8 92.8 204.8 204.8 0 112-92.8 204.8-204.8 204.8z" p-id="7814" fill="#ffffff"></path></svg>