<?xml version="1.0" standalone="no"?><!DOCTYPE svg PUBLIC "-//W3C//DTD SVG 1.1//EN" "http://www.w3.org/Graphics/SVG/1.1/DTD/svg11.dtd"><svg t="1536472632364" class="icon" style="" viewBox="0 0 1024 1024" version="1.1" xmlns="http://www.w3.org/2000/svg" p-id="21310" xmlns:xlink="http://www.w3.org/1999/xlink" width="200" height="200"><defs><style type="text/css"></style></defs><path d="M511.750313 64.266699C265.038352 64.266699 65.035202 264.265756 65.035202 510.97567c0 246.706845 200.00315 446.709995 446.715111 446.709995 246.707868 0 446.703855-200.00315 446.703855-446.709995C958.453145 264.265756 758.458181 64.266699 511.750313 64.266699zM511.750313 921.948743c-226.977501 0-410.978189-184.001711-410.978189-410.973072 0-226.975455 184.001711-410.972049 410.978189-410.972049 226.965222 0 410.974096 183.996594 410.974096 410.972049C922.724409 737.948055 738.715535 921.948743 511.750313 921.948743zM522.102079 638.746706c-22.434965 0-40.621163 18.066471-40.621163 40.346917 0 22.287609 18.182105 40.35101 40.621163 40.35101 22.426779 0 40.612976-18.063401 40.612976-40.35101C562.715055 656.813177 544.528857 638.746706 522.102079 638.746706zM674.341389 526.382569c-39.132252-38.516222-92.800569-62.480007-152.23931-62.480007-60.19701 0-114.521267 24.515347-153.776316 63.893192-0.270153 0.246617-0.544399 0.476861-0.798179 0.734734-0.11461 0.118704-0.242524 0.217964-0.361227 0.333598l0.044002 0.048095c-4.554736 4.812609-7.397481 11.253298-7.397481 18.384719 0 14.854313 12.123109 26.897603 27.080775 26.897603 7.175423 0 13.651928-2.827395 18.499329-7.353478l0.067538 0.063445c29.534663-30.292933 70.834278-49.201585 116.641557-49.201585s87.106894 18.908652 116.637464 49.201585l0.206708-0.198521c4.924149 5.015224 11.769045 8.159844 19.377326 8.159844 14.953573 0 27.076682-12.047384 27.076682-26.901697C685.400259 539.088962 681.023578 531.278065 674.341389 526.382569zM787.420817 410.352949c-68.376297-66.64077-161.963789-107.845217-265.318738-107.845217-103.81953 0-197.779505 41.557488-266.239713 108.723214-7.310499 4.816702-12.138458 13.048177-12.138458 22.414499 0 14.854313 12.123109 26.897603 27.076682 26.897603 7.612375 0 14.461363-3.140527 19.377326-8.159844l0.409322 0.401136c58.934251-59.501162 140.846842-96.477308 231.515864-96.477308S694.675506 393.283178 753.61385 452.78434l0.436952-0.436952c4.840238 4.530177 11.329023 7.353478 18.499329 7.353478 14.96176 0 27.084868-12.043291 27.084868-26.897603C799.634999 423.409312 794.767132 415.165558 787.420817 410.352949z" p-id="21311" fill="#ffffff"></path></svg>