<?xml version="1.0" standalone="no"?><!DOCTYPE svg PUBLIC "-//W3C//DTD SVG 1.1//EN" "http://www.w3.org/Graphics/SVG/1.1/DTD/svg11.dtd"><svg t="1536478014667" class="icon" style="" viewBox="0 0 1024 1024" version="1.1" xmlns="http://www.w3.org/2000/svg" p-id="7075" xmlns:xlink="http://www.w3.org/1999/xlink" width="200" height="200"><defs><style type="text/css"></style></defs><path d="M587.093333 604.023467 587.093333 628.053333c0 22.664533-18.295467 40.96-40.96 40.96l-68.266667 0c-22.664533 0-40.96-18.295467-40.96-40.96l0-24.029867L68.266667 483.054933 68.266667 764.586667c0 75.093333 61.44 136.533333 136.533333 136.533333l614.4 0c75.093333 0 136.533333-61.44 136.533333-136.533333L955.733333 483.054933 587.093333 604.023467zM819.2 259.413333l-123.016533 0c0.682667-17.6128-2.184533-36.727467-12.424533-54.613333-27.306667-47.786667-88.746667-68.266667-170.666667-68.266667s-143.36 20.48-170.666667 68.266667c-10.376533 17.885867-13.243733 37.000533-12.561067 54.613333L204.8 259.413333C129.706667 259.413333 68.266667 320.853333 68.266667 395.946667l0 58.436267 368.64 120.968533L436.906667 546.133333c0-22.664533 18.295467-40.96 40.96-40.96l68.266667 0c22.664533 0 40.96 18.295467 40.96 40.96l0 29.218133 368.64-120.968533L955.733333 395.946667C955.733333 320.853333 894.293333 259.413333 819.2 259.413333zM641.297067 259.413333l-256.682667 0c-0.682667-9.4208 0.4096-19.114667 5.188267-27.579733 20.206933-35.362133 85.879467-40.686933 123.2896-40.686933 37.2736 0 102.946133 5.3248 123.153067 40.686933C641.024 240.162133 641.979733 249.856 641.297067 259.413333zM559.786667 546.133333l0 81.92c0 7.509333-6.144 13.653333-13.653333 13.653333l-68.266667 0c-7.509333 0-13.653333-6.144-13.653333-13.653333l0-81.92c0-7.509333 6.144-13.653333 13.653333-13.653333l68.266667 0C553.642667 532.48 559.786667 538.624 559.786667 546.133333z" p-id="7076" fill="#ffffff"></path></svg>