<?xml version="1.0" standalone="no"?><!DOCTYPE svg PUBLIC "-//W3C//DTD SVG 1.1//EN" "http://www.w3.org/Graphics/SVG/1.1/DTD/svg11.dtd"><svg t="1536473287892" class="icon" style="" viewBox="0 0 1024 1024" version="1.1" xmlns="http://www.w3.org/2000/svg" p-id="29277" xmlns:xlink="http://www.w3.org/1999/xlink" width="200" height="200"><defs><style type="text/css"></style></defs><path d="M511.29383811 856.95437058c-4.85755032 0-9.71594358-1.49917072-13.90232456-4.49667005C249.33603958 674.16848715 143.49860956 530.42513272 143.49860956 371.79630783c0-122.01211917 79.84224233-214.02564066 185.68051446-214.02564065 93.84743354 0 151.83112087 46.35541489 182.11471409 89.48061364 30.23131531-43.15133689 88.26727972-89.48061365 182.11387032-89.48061364 105.83743002 0 185.68051447 92.01352148 185.68051447 214.02564065 0 158.60184302-105.83658627 302.37217932-353.89374775 480.6613927C521.00893875 855.45519986 516.15138843 856.95437058 511.29383811 856.95437058zM329.17912402 205.41783118c-78.70648069 0-138.03335129 71.52344495-138.03335128 166.37931958 0 138.68006836 95.96549817 268.39209265 320.14806454 431.92821533 224.18003677-163.53612268 320.14722161-293.27428509 320.14722162-431.92821533 0-94.85587546-59.37830393-166.37931958-138.03335128-166.37931959-125.47589585 0-158.08497446 96.61390193-159.37672358 100.72186689-3.20492093 9.84494998-12.40231009 16.56423798-22.73798968 16.56423798l-0.10371122 0c-10.38711374-0.05227707-19.53475544-6.77072214-22.63596515-16.69240147C487.26156971 302.0317331 454.65417695 205.41783118 329.17912402 205.41783118z" p-id="29278" fill="#ffffff"></path></svg>